<?xml version="1.0" encoding="UTF-8" standalone="no"?>
<svg id="svg2" xmlns="http://www.w3.org/2000/svg" height="29pt" width="29pt" version="1.0" viewBox="13 43 29 29">
 <g id="iconSymbol" transform="matrix(0.95348057,0,0,1,1.4045727,-1.2554112)" stroke="#4d4d4d" stroke-width="2.5" stroke-linecap="round" stroke-miterlimit="4" fill="none">
  <path stroke-linejoin="round" d="m48.047,13.391c0,1.7772-1.4407,3.2179-3.2179,3.2179s-3.2179-1.4407-3.2179-3.2179,1.4407-3.2179,3.2179-3.2179,3.2179,1.4407,3.2179,3.2179z" transform="matrix(0.96836809,0,0,0.96836809,-21.045967,48.956619)"/>
  <path stroke-linejoin="round" d="m48.047,13.391c0,1.7772-1.4407,3.2179-3.2179,3.2179s-3.2179-1.4407-3.2179-3.2179,1.4407-3.2179,3.2179-3.2179,3.2179,1.4407,3.2179,3.2179z" transform="matrix(0.96836809,0,0,0.96836809,-11.858172,49.13416)"/>
  <path stroke-linejoin="miter" d="M20.797,59.179,25.356,53.321" />
  <path stroke-linejoin="miter" d="m34.729,61.665,0.971-8.0674" />
  <path stroke-linejoin="miter" d="M14.536,21.27,20.251,21.048" transform="matrix(0.8,0,0,0.8,13,43)" stroke-width="2"/>
 </g>
</svg>