<?xml version="1.0" encoding="UTF-8" standalone="no"?>
<svg id="svg2" xmlns="http://www.w3.org/2000/svg" height="29pt" width="29pt" version="1.0" viewBox="13 43 29 29">
 <g id="iconSymbol" stroke="#4d4d4d" stroke-linejoin="round" >
  <g transform="translate(-5.7554417,-1.5595391)" stroke="#A00">
   <path d="m32.71,59.791c0,0.71068-0.57612,1.2868-1.2868,1.2868s-1.2868-0.57612-1.2868-1.2868,0.57612-1.2868,1.2868-1.2868,1.2868,0.57612,1.2868,1.2868z" transform="matrix(0.84497896,0,0,0.84497896,6.388125,2.0729696)" stroke-linecap="round" stroke-width="4"/>
   <rect ry="1.4818" height="8.8906" width="5.1947" stroke-linecap="butt" y="55.64" x="30.465" stroke-width="1.4708" fill="none"/>
  </g>
  <g transform="translate(-10.508322,1.7080667)">
   <path d="m32.71,59.791c0,0.71068-0.57612,1.2868-1.2868,1.2868s-1.2868-0.57612-1.2868-1.2868,0.57612-1.2868,1.2868-1.2868,1.2868,0.57612,1.2868,1.2868z" transform="matrix(0.84497896,0,0,0.84497896,6.388125,2.0729696)" stroke-linecap="round" stroke-width="4"/>
   <rect ry="1.4818" height="8.8906" width="5.1947" stroke-linecap="butt" y="55.64" x="30.465" stroke-width="1.4708" fill="none"/>
  </g>
  <g transform="translate(0.2599232,-0.14852754)">
   <path d="m32.71,59.791c0,0.71068-0.57612,1.2868-1.2868,1.2868s-1.2868-0.57612-1.2868-1.2868,0.57612-1.2868,1.2868-1.2868,1.2868,0.57612,1.2868,1.2868z"  transform="matrix(0.84497896,0,0,0.84497896,6.388125,2.0729696)" stroke-linecap="round" stroke-width="4"/>
   <rect ry="1.4818" height="8.8906" width="5.1947" stroke-linecap="butt" y="55.64" x="30.465" stroke-width="1.4708" fill="none"/>
  </g>
 </g>
</svg>