<?xml version="1.0" encoding="UTF-8" standalone="no"?>
<svg id="svg2" xmlns="http://www.w3.org/2000/svg" height="29pt" width="29pt" version="1.0" viewBox="13 43 29 29">
 <g id="iconSymbol" stroke-linejoin="round">
  <g transform="matrix(1.2007379,0,0.76194837,0.47313462,-57.256665,34.830169)" stroke="#A00">
   <path d="m32.71,59.791c0,0.71068-0.57612,1.2868-1.2868,1.2868s-1.2868-0.57612-1.2868-1.2868,0.57612-1.2868,1.2868-1.2868,1.2868,0.57612,1.2868,1.2868z" transform="matrix(0.84497896,0,0,0.84497896,6.388125,2.0729696)" stroke-width="3.26588559"/>
   <rect ry="1.4818" height="8.8906" width="5.1947" y="55.64" x="30.465" stroke-width="1.9105" fill="none"/>
  </g>
  <g stroke="#4d4d4d" transform="translate(-0.18565938,1.0396927)">
   <path d="m32.71,59.791c0,0.71068-0.57612,1.2868-1.2868,1.2868s-1.2868-0.57612-1.2868-1.2868,0.57612-1.2868,1.2868-1.2868,1.2868,0.57612,1.2868,1.2868z" transform="matrix(0.84497896,0,0,0.84497896,6.388125,2.0729696)" stroke-width="4.26046111"/>
   <rect ry="1.4818" height="8.8906" width="5.1947" y="55.64" x="30.465" stroke-width="1.6" fill="none"/>
  </g>
 </g>
</svg>